<svg xmlns="http://www.w3.org/2000/svg" viewBox="0 0 610 110">
    <path
        style="fill: #D71600; stroke: none;"
        d="M200 16L215 16C215 12.3879 216.066 6.72265 214.397 3.43364C212.643 -0.0212021 203.343 -0.119339 201.028 2.74229C198.693 5.62831 200 12.488 200 16M17 4.42824C12.5422 5.0683 7.61178 5.69713 4.41898 9.22454C2.23859 11.6334 1.35445 14.8328 1.09336 18C0.419852 26.1704 -1.11547 39.7024 6.10802 45.3511C16.4788 53.4609 32.0781 47.1712 42.9414 53.1782C47.7189 55.8201 48.2441 64.2483 46.2577 68.892C43.1442 76.1707 23.5497 76.1791 18.4336 71.3472C15.6845 68.7508 16.9768 63.3334 13.5664 61.6034C11.0531 60.3286 3.87706 60.2259 1.6034 62.0278C-0.38823 63.6061 0.0307996 66.7956 0.287037 69C0.946194 74.6708 1.93369 80.6332 7.04398 84.0054C17.5136 90.9142 38.3262 89.0375 50 86.4815C63.0269 83.6292 64.0199 68.0452 62.4205 57C61.7062 52.0671 60.8687 47.1652 56.787 43.8002C46.973 35.7092 32.0705 40.6573 21.044 36.1073C16.3441 34.1679 15.1484 28.5946 16.4336 24.0154C18.6557 16.0983 37.1124 15.5527 42.8519 19.7423C45.9502 22.004 45.5556 26.8319 49.1481 28.3966C51.754 29.5316 57.2642 29.5865 59.6821 27.9722C65.4406 24.1276 60.0158 11.2052 55.8117 8.13349C46.6499 1.43922 27.683 2.89434 17 4.42824M395 54C395 58.8259 396.467 66.6784 393.258 70.6968C388.679 76.4295 370.202 75.6591 365.434 70.6057C362.708 67.7173 362.53 62.7657 362.17 59C361.275 49.6334 360.928 38.2903 362.44 29C363.159 24.578 364.603 20.9318 369.015 19.1481C374.424 16.9619 388.07 16.198 392.566 20.5139C394.831 22.6881 394.403 26.9726 397.317 28.3966C401.083 30.2369 409.03 29.813 409.852 24.9414C410.223 22.7407 410.056 20.1871 409.671 18C406.771 1.49414 387.58 3.94009 375 4.00077C368.164 4.03374 358.797 4.1677 353.329 8.80016C344.449 16.3231 346 31.6075 346 42C346 53.3432 343.66 68.9166 349.995 78.9961C357.245 90.5327 378.091 88.726 390 87.9105C394.075 87.6314 399.335 87.4382 402.957 85.4275C413.057 79.8194 410 63.5678 410 54C410 50.4241 411.321 43.6449 406.852 42.3179C401.642 40.7713 394.413 41.9635 389 42.0008C387.008 42.0145 384.281 41.6987 382.603 43.0278C380.01 45.0815 380.311 51.7245 383.318 53.2577C386.499 54.8793 391.527 54 395 54M305.603 14.0278C303.864 15.4055 304.042 18.0191 304.005 20.0008C303.91 24.9968 304 30.003 304 35L304 68C304 72.838 303.412 78.6478 306.703 82.6597C310.241 86.9738 315.915 86.9918 321 87C324.324 87.0053 330.619 88.1722 333.397 85.9722C335.895 83.9935 335.691 76.9967 333.258 75.0278C330.568 72.8516 326.182 74.6724 323.109 73.3966C317.765 71.1786 319 63.6326 319 59C319 53.9707 316.528 40.0572 322.148 37.6034C326.069 35.8917 331.932 38.7162 335.397 35.9722C337.727 34.1268 337.727 27.8733 335.397 26.0278C331.611 23.0294 325.353 26.6647 321.318 23.9722C318.225 21.9084 319.801 18.1568 318.397 15.3179C316.793 12.077 308.179 11.9878 305.603 14.0278M91 23.439C73.2018 26.2475 73.9944 43.4969 74 58C74.0027 65.0781 74.05 73.8182 77.9946 79.9846C84.023 89.4084 102.079 88.9017 112 87.7145C114.94 87.3627 118.243 87.1265 120.999 85.9915C127.474 83.3252 130.464 76.6304 130.909 70.0008C131.055 67.8273 131.319 64.7013 129.397 63.179C128.181 62.2165 126.472 62.1287 124.995 62.0448C115.594 61.5101 119.237 67.8335 113.697 72.2577C108.87 76.1125 95.2683 75.1725 91.858 69.9414C89.4271 66.2126 90.0003 61.2324 90 57C89.9998 53.3711 89.728 49.6071 90.1852 46C91.4336 36.1505 106.368 32.0294 113.721 38.5139C116.386 40.8632 116.114 45.8479 119.314 47.3966C121.725 48.5637 127.235 48.533 129.397 46.821C134.795 42.5455 129.002 29.6309 124.945 26.51C117.204 20.5555 100.174 21.9915 91 23.439M246 28C244.558 23.6557 235.214 21.5801 232.028 25.6034C229.221 29.1477 231 38.6802 231 43L231 88C231 93.149 229.298 101.998 231.603 106.682C233.356 110.245 243.644 110.245 245.397 106.682C246.471 104.499 245.999 101.353 246 99L246 82C254.432 87.9504 263.086 88.3612 273 87.1551C278.125 86.5316 282.756 85.5559 285.775 80.9059C290.893 73.0249 290 61.9412 290 53C290 44.9064 290.308 33.3677 283.786 27.3943C278.057 22.146 269.177 22.9157 262 23.0039C255.963 23.078 251.166 24.9959 246 28M160 33C159.358 30.8543 159.393 27.3734 157.973 25.6034C155.75 22.832 146.253 22.9656 144.603 26.3179C142.841 29.899 144 36.096 144 40L144 72C144 75.4758 142.522 83.5316 145.603 85.9722C148.532 88.292 157.481 87.8967 158.682 83.8519C161.062 75.8356 158.999 64.3574 159 56C159 51.5763 158.453 46.7721 161.434 43.108C168.211 34.7761 177.72 40.9469 185.852 37.3966C189.412 35.8423 189.961 29.4981 188.397 26.3179C186.951 23.3787 182.703 24.0045 180 24C171.759 23.9862 164.27 25.1467 160 33M215 24C211.486 24 203.473 22.5162 201.028 25.6034C198.699 28.5433 200 35.4689 200 39L200 73C200 76.3281 198.825 82.6153 201.028 85.3966C203.234 88.1825 212.754 88.0212 214.397 84.6821C216.594 80.2165 215 71.9014 215 67L215 50L215 24M424.603 25.0278C422.639 26.5832 423.016 29.7909 423.001 32C422.959 37.9994 423 44.0005 423 50C423 59.0122 420.237 74.1193 425.738 81.8912C428.805 86.2229 434.174 86.6243 439 87.0748C447.54 87.8722 455.453 88.0843 464 87.1659C468.38 86.6952 473.246 86.5522 476.772 83.49C480.438 80.3054 480.874 74.5415 480.985 70C481.231 60.0124 481 49.9908 481 40C481 36.096 482.159 29.899 480.397 26.3179C478.761 22.993 470.205 23.1828 467.318 24.6034C463.791 26.339 465 32.8114 465 36L465 63C464.989 68.5027 464.532 73.3687 457.999 73.9414C453.633 74.3242 444.873 75.3918 441.318 72.3966C438.001 69.6022 439 63.8395 439 60C439 49.7775 440.568 38.1318 438.852 28.0586C438.008 23.1031 428.088 22.2683 424.603 25.0278M512 33C511.358 30.8543 511.393 27.3734 509.973 25.6034C507.75 22.832 498.253 22.9657 496.603 26.3179C494.841 29.8989 496 36.096 496 40L496 72C496 75.4758 494.522 83.5317 497.603 85.9722C500.532 88.292 509.481 87.8967 510.682 83.8519C513.062 75.8356 510.999 64.3574 511 56C511 51.5763 510.453 46.7721 513.434 43.108C520.211 34.7761 529.72 40.9469 537.852 37.3966C541.412 35.8424 541.961 29.4981 540.397 26.3179C538.951 23.3787 534.703 24.0045 532 24C523.759 23.9862 516.27 25.1467 512 33M552.603 25.0278C550.639 26.5833 551.016 29.7908 551.001 32C550.959 37.9994 551 44.0005 551 50C551 59.0122 548.237 74.1193 553.738 81.8912C556.805 86.2229 562.174 86.6243 567 87.0748C575.54 87.8722 583.453 88.0843 592 87.1659C596.38 86.6952 601.246 86.5522 604.772 83.49C608.438 80.3054 608.874 74.5415 608.985 70C609.231 60.0124 609 49.9908 609 40C609 36.096 610.159 29.899 608.397 26.3179C606.761 22.993 598.205 23.1827 595.318 24.6034C591.791 26.339 593 32.8114 593 36L593 63C592.989 68.5028 592.532 73.3687 585.999 73.9414C581.633 74.3242 572.873 75.3918 569.318 72.3966C566.001 69.6023 567 63.8395 567 60C567 49.7774 568.568 38.1319 566.852 28.0586C566.008 23.1031 556.088 22.2683 552.603 25.0278z"/>
    <path
        style="fill: white; stroke: none;"
        d="M257 36.4282C253.827 36.8877 249.906 37.2984 247.603 39.804C244.152 43.5594 246 53.2411 246 58C246 61.7784 244.981 67.4621 247.603 70.581C251.44 75.1449 261.658 74.6966 266.995 73.8519C275.399 72.5219 274 62.3079 274 56C274 46.4247 275.16 36.8466 263 36.0941C260.984 35.9694 258.994 36.1395 257 36.4282z"/>
</svg>